# xmcd
#
# Track frame offsets:
#	150
#	20284
#	40481
#	55252
#	74457
#	86435
#	101294
#	119218
#	133184
#	148795
#	162888
#	182842
#	201013
#	216949
#	234975
#	251207
#	264174
#	279265
#	295383
#	311369
#	329117
#
# Disc length: 4654 seconds
#
# Revision: 0
# Processed by: cddbd v1.5.2PL0 Copyright (c) Steve Scherf et al.
# Submitted via: EasyCDDAExtractor 16.0.9.1
#
DISCID=44122c15
DTITLE=Nu Urban Traxx Volume 217 US
DYEAR=2015
DGENRE=blues
TTITLE0=Macklemore and Ryan Lewis\n - Downtown\n
TTITLE1=Drake\n - Hotline Bling\n
TTITLE2=Nicki Minaj ft. Lunchmoney Lewis\n - Trini Dem Girls\n
TTITLE3=A$AP Rocky ft. SCHoolboy Q\n - Electric Body\n
TTITLE4=Jamie XX ft. Young Thug and Popcaan - I Know There’s Gonna Be (Good Ti
TTITLE4=mes)
TTITLE5=Miguel\n - Simple Things\n
TTITLE6=Tory Lanez\n - Say It\n
TTITLE7=O.T. Genasis ft. Lil Wayne\n - Do It\n
TTITLE8=2 Chainz\n - Watch Out\n
TTITLE9=Jamie Foxx\n - In Love By Now\n
TTITLE10=Travi$ Scott\n - Antidote\n
TTITLE11=Jacquees ft. Rich Homie Quan\n - Come Thru\n
TTITLE12=R. Kelly\n - Backyard Party\n
TTITLE13=Curren$y ft. August Alsina and Lil Wayne\n - Bottom Of The Bottle\n
TTITLE14=Kirko Bangz ft. Fetty Wap\n - Worry Bout It\n
TTITLE15=Drake\n - Back To Back\n
TTITLE16=Alessia Cara\n - Here\n
TTITLE17=SWV\n - Ain't No Man\n
TTITLE18=Post Malone\n - White Iverson\n
TTITLE19=Babyface\n - We've Got Love\n
TTITLE20=Kirk Franklin\n - Wanna Be Happy\n
EXTD=
EXTT0=
EXTT1=
EXTT2=
EXTT3=
EXTT4=
EXTT5=
EXTT6=
EXTT7=
EXTT8=
EXTT9=
EXTT10=
EXTT11=
EXTT12=
EXTT13=
EXTT14=
EXTT15=
EXTT16=
EXTT17=
EXTT18=
EXTT19=
EXTT20=
PLAYORDER=
